<svg xmlns="http://www.w3.org/2000/svg" width="900" height="520" viewBox="0 0 900 520">
<rect width="100%" height="100%" fill="white"/>
<text x="70" y="32" font-family="Arial" font-size="22">Nominal recoil minus event-level recoil [GeV]</text>
<line x1="70" y1="450" x2="870" y2="450" stroke="black"/>
<line x1="70" y1="55" x2="70" y2="450" stroke="black"/>
<line x1="70.0" y1="450" x2="70.0" y2="455" stroke="black"/>
<text x="70.0" y="474" text-anchor="middle" font-family="Arial" font-size="12">-90.5</text>
<line x1="230.0" y1="450" x2="230.0" y2="455" stroke="black"/>
<text x="230.0" y="474" text-anchor="middle" font-family="Arial" font-size="12">308</text>
<line x1="390.0" y1="450" x2="390.0" y2="455" stroke="black"/>
<text x="390.0" y="474" text-anchor="middle" font-family="Arial" font-size="12">706</text>
<line x1="550.0" y1="450" x2="550.0" y2="455" stroke="black"/>
<text x="550.0" y="474" text-anchor="middle" font-family="Arial" font-size="12">1.1e+03</text>
<line x1="710.0" y1="450" x2="710.0" y2="455" stroke="black"/>
<text x="710.0" y="474" text-anchor="middle" font-family="Arial" font-size="12">1.5e+03</text>
<line x1="870.0" y1="450" x2="870.0" y2="455" stroke="black"/>
<text x="870.0" y="474" text-anchor="middle" font-family="Arial" font-size="12">1.9e+03</text>
<line x1="65" y1="450.0" x2="70" y2="450.0" stroke="black"/>
<text x="60" y="454.0" text-anchor="end" font-family="Arial" font-size="12">0</text>
<line x1="65" y1="351.2" x2="70" y2="351.2" stroke="black"/>
<text x="60" y="355.2" text-anchor="end" font-family="Arial" font-size="12">250000</text>
<line x1="65" y1="252.5" x2="70" y2="252.5" stroke="black"/>
<text x="60" y="256.5" text-anchor="end" font-family="Arial" font-size="12">500000</text>
<line x1="65" y1="153.8" x2="70" y2="153.8" stroke="black"/>
<text x="60" y="157.8" text-anchor="end" font-family="Arial" font-size="12">750000</text>
<line x1="65" y1="55.0" x2="70" y2="55.0" stroke="black"/>
<text x="60" y="59.0" text-anchor="end" font-family="Arial" font-size="12">1000000</text>
<polyline fill="none" stroke="#1f77b4" stroke-width="2" points="76.7,450.0 90.0,450.0 103.3,55.0 116.7,450.0 130.0,450.0 143.3,450.0 156.7,450.0 170.0,450.0 183.3,450.0 196.7,450.0 210.0,450.0 223.3,450.0 236.7,450.0 250.0,450.0 263.3,450.0 276.7,450.0 290.0,450.0 303.3,450.0 316.7,450.0 330.0,450.0 343.3,450.0 356.7,450.0 370.0,450.0 383.3,450.0 396.7,450.0 410.0,450.0 423.3,450.0 436.7,450.0 450.0,450.0 463.3,450.0 476.7,450.0 490.0,450.0 503.3,450.0 516.7,450.0 530.0,450.0 543.3,450.0 556.7,450.0 570.0,450.0 583.3,450.0 596.7,450.0 610.0,450.0 623.3,450.0 636.7,450.0 650.0,450.0 663.3,450.0 676.7,450.0 690.0,450.0 703.3,450.0 716.7,450.0 730.0,450.0 743.3,450.0 756.7,450.0 770.0,450.0 783.3,450.0 796.7,450.0 810.0,450.0 823.3,450.0 836.7,450.0 850.0,450.0 863.3,450.0"/>
<line x1="640" y1="55" x2="670" y2="55" stroke="#1f77b4" stroke-width="3"/>
<text x="676" y="59" font-family="Arial" font-size="13">Tt1200_baseline</text>
<polyline fill="none" stroke="#b22222" stroke-width="2" points="76.7,450.0 90.0,450.0 103.3,297.4 116.7,404.1 130.0,428.2 143.3,434.6 156.7,437.6 170.0,439.7 183.3,441.0 196.7,442.0 210.0,442.8 223.3,443.3 236.7,443.9 250.0,444.2 263.3,444.7 276.7,444.9 290.0,445.2 303.3,445.5 316.7,445.7 330.0,445.8 343.3,446.1 356.7,446.3 370.0,446.4 383.3,446.5 396.7,446.7 410.0,446.8 423.3,447.0 436.7,447.0 450.0,447.1 463.3,447.3 476.7,447.4 490.0,447.5 503.3,447.6 516.7,447.7 530.0,447.8 543.3,447.9 556.7,448.0 570.0,448.1 583.3,448.2 596.7,448.3 610.0,448.4 623.3,448.5 636.7,448.6 650.0,448.7 663.3,448.9 676.7,449.0 690.0,449.1 703.3,449.2 716.7,449.4 730.0,449.5 743.3,449.7 756.7,449.9 770.0,450.0 783.3,450.0 796.7,450.0 810.0,450.0 823.3,450.0 836.7,450.0 850.0,450.0 863.3,450.0"/>
<line x1="640" y1="73" x2="670" y2="73" stroke="#b22222" stroke-width="3"/>
<text x="676" y="77" font-family="Arial" font-size="13">Tt1200_ISR_clic3000ll</text>
<polyline fill="none" stroke="#228b22" stroke-width="2" points="76.7,450.0 90.0,450.0 103.3,297.1 116.7,404.0 130.0,428.4 143.3,434.5 156.7,437.7 170.0,439.6 183.3,441.0 196.7,441.8 210.0,442.8 223.3,443.4 236.7,443.7 250.0,444.2 263.3,444.6 276.7,444.9 290.0,445.2 303.3,445.4 316.7,445.7 330.0,445.9 343.3,446.0 356.7,446.3 370.0,446.4 383.3,446.6 396.7,446.7 410.0,446.8 423.3,446.9 436.7,447.1 450.0,447.1 463.3,447.3 476.7,447.4 490.0,447.5 503.3,447.7 516.7,447.8 530.0,447.9 543.3,447.9 556.7,448.1 570.0,448.1 583.3,448.2 596.7,448.3 610.0,448.4 623.3,448.5 636.7,448.7 650.0,448.8 663.3,448.9 676.7,449.0 690.0,449.1 703.3,449.2 716.7,449.4 730.0,449.5 743.3,449.7 756.7,449.9 770.0,450.0 783.3,450.0 796.7,450.0 810.0,450.0 823.3,450.0 836.7,450.0 850.0,450.0 863.3,450.0"/>
<line x1="640" y1="91" x2="670" y2="91" stroke="#228b22" stroke-width="3"/>
<text x="676" y="95" font-family="Arial" font-size="13">Tt1200_plus80_ISR_clic3000ll</text>
<polyline fill="none" stroke="#6a3d9a" stroke-width="2" points="76.7,450.0 90.0,450.0 103.3,297.0 116.7,404.2 130.0,428.1 143.3,434.5 156.7,437.7 170.0,439.7 183.3,440.9 196.7,442.0 210.0,442.8 223.3,443.3 236.7,443.8 250.0,444.2 263.3,444.7 276.7,444.9 290.0,445.1 303.3,445.4 316.7,445.7 330.0,445.9 343.3,446.0 356.7,446.3 370.0,446.4 383.3,446.5 396.7,446.6 410.0,446.9 423.3,446.9 436.7,447.1 450.0,447.2 463.3,447.3 476.7,447.4 490.0,447.5 503.3,447.6 516.7,447.7 530.0,447.8 543.3,447.9 556.7,448.0 570.0,448.1 583.3,448.3 596.7,448.3 610.0,448.4 623.3,448.5 636.7,448.7 650.0,448.8 663.3,448.9 676.7,449.0 690.0,449.1 703.3,449.2 716.7,449.4 730.0,449.5 743.3,449.7 756.7,449.9 770.0,450.0 783.3,450.0 796.7,450.0 810.0,450.0 823.3,450.0 836.7,450.0 850.0,450.0 863.3,450.0"/>
<line x1="640" y1="109" x2="670" y2="109" stroke="#6a3d9a" stroke-width="3"/>
<text x="676" y="113" font-family="Arial" font-size="13">Tt1200_minus80_ISR_clic3000ll</text>
</svg>